<?xml version="1.0" standalone="no"?>
<!DOCTYPE svg PUBLIC "-//W3C//DTD SVG 20010904//EN"
 "http://www.w3.org/TR/2001/REC-SVG-20010904/DTD/svg10.dtd">
<svg version="1.0" xmlns="http://www.w3.org/2000/svg"
 width="256.000000pt" height="256.000000pt" viewBox="0 0 256.000000 256.000000"
 preserveAspectRatio="xMidYMid meet">
<metadata>
Created by potrace 1.11, written by Peter Selinger 2001-2013
</metadata>
<g transform="translate(0.000000,256.000000) scale(0.100000,-0.100000)"
fill="#000000" stroke="none">
<path d="M131 2534 c-58 -29 -104 -84 -122 -143 -7 -24 -9 -395 -7 -1132 l3
-1096 30 -49 c19 -30 49 -60 79 -79 l49 -30 1117 0 1117 0 49 30 c30 19 60 49
79 79 l30 49 0 1117 0 1117 -30 49 c-19 30 -49 60 -79 79 l-49 30 -1106 3
-1107 2 -53 -26z m1444 -298 c153 -48 235 -168 235 -346 0 -101 -21 -158 -82
-225 -45 -49 -134 -105 -170 -105 -7 0 -19 -4 -27 -9 -11 -7 -5 -16 25 -42
156 -130 246 -254 279 -384 22 -86 20 -238 -5 -317 -44 -144 -175 -286 -332
-362 -137 -66 -238 -90 -378 -90 -190 1 -315 47 -415 155 -89 97 -130 252
-105 397 23 139 130 306 223 351 47 23 125 28 158 11 26 -14 25 -83 -1 -181
-47 -174 -34 -307 35 -367 41 -37 85 -47 170 -39 79 8 122 25 173 72 52 47 77
110 76 195 -1 116 -67 220 -233 368 -218 193 -291 344 -262 544 27 193 141
322 336 380 72 21 222 19 300 -6z"/>
<path d="M1294 1989 c-23 -11 -50 -29 -59 -39 -16 -18 -16 -22 0 -70 22 -65
80 -152 148 -218 l54 -53 41 47 c55 62 92 139 99 208 7 64 -8 95 -60 126 -46
28 -166 28 -223 -1z"/>
</g>
</svg>
